<svg xmlns="http://www.w3.org/2000/svg" version="1.1" xmlns:xlink="http://www.w3.org/1999/xlink" xmlns:svgjs="http://svgjs.com/svgjs" width="1440" height="560" preserveAspectRatio="none" viewBox="0 0 1440 560"><g mask="url(&quot;#SvgjsMask1003&quot;)" fill="none"><rect width="1440" height="560" x="0" y="0" fill="rgba(117, 79, 68, 1)"></rect><path d="M52.97 0C99.48 19.45 98.09 27.11 140 58.55C191.39 97.11 189.49 99.64 239.56 140C259.49 156.06 258.66 171.38 280 171.38C306.45 171.38 316.46 164.4 335.15 140C382.09 78.71 371.03 66.36 411.25 0C413.46 -3.64 415.63 0 420 0C490 0 490 0 560 0C630 0 630 0 700 0C770 0 770 0 840 0C910 0 910 0 980 0C1050 0 1050 0 1120 0C1182.68 0 1245.37 -25.96 1245.37 0C1245.37 36.72 1185.09 65.96 1120 125.37C1108.4 135.96 1092 130.83 1092 140C1092 151.04 1102.05 162.64 1120 165.79C1186.05 177.38 1190.96 160.3 1260 169.47C1330.96 178.9 1340.61 212.69 1400 203C1430.93 197.95 1440.65 173.01 1440.65 140C1440.65 96.51 1431.13 85.43 1400 50C1369.63 15.43 1317.65 13.48 1317.65 0C1317.65 -11.52 1358.82 0 1400 0C1470 0 1505 -35 1540 0C1575 35 1540 70 1540 140C1540 210 1540 210 1540 280C1540 350 1540 350 1540 420C1540 470.4 1567.38 514.93 1540 520.8C1497.38 529.93 1450.14 438.69 1400 450C1363.22 458.29 1402.56 531.39 1366.15 560C1332.56 586.39 1313.07 560 1260 560C1202.5 560 1175.39 591.38 1145 560C1107.61 521.38 1136.15 489.54 1124.44 420C1123.65 415.3 1123.97 414.13 1120 411.52C1051.75 366.53 1038.79 322.27 980 324.8C940.45 326.51 923.33 374.02 923.33 420C923.33 458.81 948.74 459.83 980 494.38C1012.08 529.83 1050 541.03 1050 560C1050 573.84 1015 560 980 560C910 560 910 560 840 560C772.34 560 721.01 592.69 704.67 560C686.01 522.69 758.88 492.99 770 420C780.21 352.99 771.2 343.47 747.32 280C736.2 250.46 722.97 233.97 700 233.97C678.31 233.97 666.94 251.49 658 280C637.78 344.5 632.22 352.31 641.67 420C651.76 492.31 718.45 523.36 697.08 560C677.62 593.36 628.54 560 560 560C490 560 490 560 420 560C359.09 560 318.76 592.12 298.18 560C273.91 522.12 336.45 483.25 330.31 420C327.36 389.58 303.76 372.65 280 372.65C258.73 372.65 260.81 396.93 240.25 420C190.81 475.47 195.63 482.32 140 529.73C113.5 552.32 109.76 552.7 76 560C39.76 567.84 13.37 584.63 0 560C-24.63 514.63 0 490 0 420C0 350 0 350 0 280C0 210 0 210 0 140C0 70 -19.21 50.79 0 0C7.27 -19.21 29.48 -9.82 52.97 0" stroke="rgba(245, 222, 179, 1)" stroke-width="2"></path><path d="M140 244.19C128.26 244.19 118.61 263.31 118.61 280C118.61 292.37 128.61 302.32 140 302.32C153.05 302.32 167.5 292.78 167.5 280C167.5 263.71 152.71 244.19 140 244.19" stroke="rgba(245, 222, 179, 1)" stroke-width="2"></path><path d="M0 140C70 131.09 72.56 122.18 140 122.18C153.45 122.18 161.78 130.42 161.78 140C161.78 150.73 148.61 149.66 140 162.79C102.72 219.66 70 225.36 70 280C70 320.49 106.02 315.6 140 353.04C169.54 385.6 197.04 387.02 197.04 420C197.04 451.71 172.52 482.43 140 482.43C95.88 482.43 89.69 454 43.75 420C19.69 402.19 8.27 405.29 0 378.82C-13.6 335.29 0 329.41 0 280C0 210 0 210 0 140C0 140 0 140 0 140" stroke="rgba(245, 222, 179, 1)" stroke-width="2"></path><path d="M437.5 140C451.7 69 437.2 44.35 476 0C498.45 -25.65 518 0 560 0C630 0 630 0 700 0C726.25 0 727.96 -7.44 752.5 0C797.96 13.77 793.9 28.24 840 42.42C907.65 63.24 929.54 84.17 980 70C1005.06 62.96 966.22 12.41 991.05 0C1036.22 -22.59 1055.53 0 1120 0C1156.57 0 1193.13 -15.15 1193.13 0C1193.13 21.42 1161.97 43.92 1120 73.13C1061.4 113.92 1051.96 102.37 992 140C981.96 146.3 985.59 150.28 980 161C949.08 220.28 950.76 221.19 918.97 280C880.76 350.69 872 420 840 420C810.82 420 833.09 340.94 796.62 280C763.09 223.96 746.91 186.03 700 186.03C655.72 186.03 641.68 225 614.25 280C583.34 341.99 580.87 350.6 583.33 420C585.83 490.6 632.27 511.39 624.17 560C620.61 581.39 592.09 560 560 560C490 560 490 560 420 560C381.82 560 349.65 584.04 343.64 560C332.15 514.04 365.8 490.4 385 420C403.98 350.4 402.5 350 420 280C420 280 420 280 420 280C428.75 210 423.7 209 437.5 140" stroke="rgba(245, 222, 179, 1)" stroke-width="2"></path><path d="M1497.1 140C1482.46 71.78 1468.66 50.06 1484 0C1490.11 -19.94 1532 -20 1540 0C1560 50 1540 70 1540 140C1540 200.46 1550.41 260.91 1540 260.91C1528.96 260.91 1510.46 202.24 1497.1 140" stroke="rgba(245, 222, 179, 1)" stroke-width="2"></path><path d="M230 280C230 256.85 249.65 231.72 280 231.72C344.65 231.72 420 257.47 420 280C420 302.2 345.8 321.18 280 321.18C250.8 321.18 230 301.58 230 280" stroke="rgba(245, 222, 179, 1)" stroke-width="2"></path><path d="M1083.48 280C1083.48 268.36 1099.38 260.04 1120 257.89C1187.64 250.83 1190.58 254.83 1260 261.58C1304.33 265.89 1329.65 249.14 1347.5 280C1375.47 328.35 1356.56 350.49 1351.64 420C1346.65 490.49 1358.72 512.59 1327.69 560C1312.9 582.59 1293.85 560 1260 560C1223.34 560 1200.41 584.04 1186.67 560C1160.41 514.04 1197.34 486.2 1180 420C1164 358.92 1155.9 357.52 1120 305.45C1107.64 287.52 1083.48 292.14 1083.48 280" stroke="rgba(245, 222, 179, 1)" stroke-width="2"></path><path d="M1455.42 420C1455.42 365.43 1516.92 293.13 1540 293.13C1559.21 293.13 1540 356.57 1540 420C1540 447.07 1554.81 474.13 1540 474.13C1512.52 474.13 1455.42 455.93 1455.42 420" stroke="rgba(245, 222, 179, 1)" stroke-width="2"></path><path d="M821.33 560C821.33 498.17 825.56 420 840 420C854.89 420 880 505.09 880 560C880 575.09 860 560 840 560C830.66 560 821.33 568.17 821.33 560" stroke="rgba(245, 222, 179, 1)" stroke-width="2"></path><path d="M525 140C525.36 69.98 519.54 59.17 534.33 0C537.04 -10.83 547.16 0 560 0C585.66 0 595.82 -17.06 611.33 0C659.46 52.94 696.79 74.72 687.27 140C676.37 214.72 622.37 206.64 570.5 280C558.73 296.64 568.67 320 560 320C549.87 320 537.38 303.06 532.9 280C519.88 213.06 524.64 209.98 525 140" stroke="rgba(245, 222, 179, 1)" stroke-width="2"></path><path d="M1120 20.9C1103 20.9 1083.16 5.59 1083.16 0C1083.16 -4.86 1101.58 0 1120 0C1130.45 0 1140.9 -4.33 1140.9 0C1140.9 6.12 1131.87 20.9 1120 20.9" stroke="rgba(245, 222, 179, 1)" stroke-width="2"></path><path d="M0 237.22C5.65 237.22 21.39 259.43 21.39 280C21.39 295.92 5.89 310.2 0 310.2C-4.81 310.2 0 295.1 0 280C0 258.61 -5.05 237.22 0 237.22" stroke="rgba(245, 222, 179, 1)" stroke-width="2"></path><path d="M116.67 420C116.67 412.07 129.38 403.77 140 403.77C147.96 403.77 153.83 412 153.83 420C153.83 427.69 147.89 435.14 140 435.14C129.31 435.14 116.67 427.76 116.67 420" stroke="rgba(245, 222, 179, 1)" stroke-width="2"></path><path d="M1235.56 420C1240.04 393.15 1247.08 370.32 1260 370.32C1273.3 370.32 1283.77 392.55 1288 420C1298.38 487.39 1300.81 502.09 1289.23 560C1286.81 572.09 1274.61 560 1260 560C1244.16 560 1230.58 572.9 1228.33 560C1218.36 502.9 1224.21 487.99 1235.56 420" stroke="rgba(245, 222, 179, 1)" stroke-width="2"></path><path d="M1528.33 420C1528.33 412.47 1536.81 402.5 1540 402.5C1542.65 402.5 1540 411.25 1540 420C1540 423.74 1542.04 427.47 1540 427.47C1536.21 427.47 1528.33 424.96 1528.33 420" stroke="rgba(245, 222, 179, 1)" stroke-width="2"></path><path d="M389.09 560C389.09 525.32 390.65 468.46 420 468.46C465.61 468.46 539 534.47 539 560C539 580.24 479.5 560 420 560C404.54 560 389.09 571.09 389.09 560" stroke="rgba(245, 222, 179, 1)" stroke-width="2"></path></g><defs><mask id="SvgjsMask1003"><rect width="1440" height="560" fill="#ffffff"></rect></mask></defs></svg>